HIERARCHY
ROOT SpineBase
{
  OFFSET 0.000000 0.000000 0.000000
  CHANNELS 6 Xposition Yposition Zposition Zrotation Xrotation Yrotation
  JOINT SpineMid
  {
    OFFSET 0.000000 26.506700 0.000000
    CHANNELS 3 Zrotation Xrotation Yrotation
    JOINT SpineShoulder
    {
      OFFSET -0.039298 19.828189 -0.509424
      CHANNELS 3 Zrotation Xrotation Yrotation
      JOINT Neck
      {
        OFFSET -0.062450 6.565113 -0.401965
        CHANNELS 3 Zrotation Xrotation Yrotation
        JOINT Head
        {
          OFFSET 0.957558 13.113538 -2.192854
          CHANNELS 3 Zrotation Xrotation Yrotation
          End Site
          {
            OFFSET 0 0 0
          }
        }
      }
      JOINT ShoulderLeft
      {
        OFFSET -15.279032 -3.881397 -0.252758
        CHANNELS 3 Zrotation Xrotation Yrotation
        JOINT ElbowLeft
        {
          OFFSET -3.975362 -23.791999 1.208971
          CHANNELS 3 Zrotation Xrotation Yrotation
          JOINT WristLeft
          {
            OFFSET 0.750599 -20.613284 -5.203482
            CHANNELS 3 Zrotation Xrotation Yrotation
            JOINT HandLeft
            {
              OFFSET 1.885317 -6.791195 -1.912380
              CHANNELS 3 Zrotation Xrotation Yrotation
              JOINT HandTipLeft
              {
                OFFSET 0.007351 -6.577695 -2.163328
                CHANNELS 3 Zrotation Xrotation Yrotation
                End Site
                {
                  OFFSET 0 0 0
                }
              }
              JOINT ThumbLeft
              {
                OFFSET 2.767303 -1.481312 -1.535187
                CHANNELS 3 Zrotation Xrotation Yrotation
                End Site
                {
                  OFFSET 0 0 0
                }
              }
            }
          }
        }
      }
      JOINT ShoulderRight
      {
        OFFSET 16.647086 -3.617734 -0.630887
        CHANNELS 3 Zrotation Xrotation Yrotation
        JOINT ElbowRight
        {
          OFFSET 4.996481 -22.830805 3.376596
          CHANNELS 3 Zrotation Xrotation Yrotation
          JOINT WristRight
          {
            OFFSET -3.059036 -18.177273 -10.007766
            CHANNELS 3 Zrotation Xrotation Yrotation
            JOINT HandRight
            {
              OFFSET -2.541789 -6.404826 -4.221160
              CHANNELS 3 Zrotation Xrotation Yrotation
              JOINT HandTipRight
              {
                OFFSET -0.886712 -6.008652 -3.342158
                CHANNELS 3 Zrotation Xrotation Yrotation
                End Site
                {
                  OFFSET 0 0 0
                }
              }
              JOINT ThumbRight
              {
                OFFSET 2.310089 -1.740817 -1.894630
                CHANNELS 3 Zrotation Xrotation Yrotation
                End Site
                {
                  OFFSET 0 0 0
                }
              }
            }
          }
        }
      }
    }
  }
  JOINT HipLeft
  {
    OFFSET -6.814087 0.373198 -2.678462
    CHANNELS 3 Zrotation Xrotation Yrotation
    JOINT KneeLeft
    {
      OFFSET -1.290752 -31.736045 7.142119
      CHANNELS 3 Zrotation Xrotation Yrotation
      JOINT AnkleLeft
      {
        OFFSET 1.416363 -31.453804 12.297999
        CHANNELS 3 Zrotation Xrotation Yrotation
        JOINT FootLeft
        {
          OFFSET -0.057759 -4.791534 -10.769897
          CHANNELS 3 Zrotation Xrotation Yrotation
          End Site
          {
            OFFSET 0 0 0
          }
        }
      }
    }
  }
  JOINT HipRight
  {
    OFFSET 6.475726 1.332861 -2.822690
    CHANNELS 3 Zrotation Xrotation Yrotation
    JOINT KneeRight
    {
      OFFSET 6.176005 -31.894276 3.959089
      CHANNELS 3 Zrotation Xrotation Yrotation
      JOINT AnkleRight
      {
        OFFSET 1.091474 -30.943477 15.747497
        CHANNELS 3 Zrotation Xrotation Yrotation
        JOINT FootRight
        {
          OFFSET 1.052639 -5.800775 -7.625136
          CHANNELS 3 Zrotation Xrotation Yrotation
          End Site
          {
            OFFSET 0 0 0
          }
        }
      }
    }
  }
}
MOTION
Frames: 8
Frame Time: 0.033333
16.101850 67.808614 339.602575 -0.000000 0.000000 0.621777 -0.000000 0.000000 -0.621777 -0.000000 0.000000 0.000000 -0.000000 0.000000 0.000000 0.000000 0.000000 0.000000 -0.000000 0.000000 0.000000 -0.000000 0.000000 0.000000 -0.000000 0.000000 0.000000 -0.000000 0.000000 0.000000 0.000000 0.000000 0.000000 0.000000 0.000000 0.000000 -0.000000 0.000000 0.000000 -0.000000 0.000000 0.000000 -0.000000 0.000000 0.000000 -0.000000 0.000000 0.000000 0.000000 0.000000 0.000000 0.000000 0.000000 0.000000 -0.000000 0.000000 -0.621777 -0.000000 0.000000 0.000000 -0.000000 0.000000 0.000000 0.000000 0.000000 0.000000 -0.000000 0.000000 -0.621777 -0.000000 0.000000 0.000000 -0.000000 0.000000 0.000000 0.000000 0.000000 0.000000
16.079744 67.823318 339.618815 -0.015376 -0.014226 0.655446 0.015538 0.014049 -0.655450 -0.000000 0.000000 0.000000 -0.000000 0.000000 0.000000 0.000000 0.000000 0.000000 -0.000000 0.000000 0.000000 -0.000000 0.000000 0.000000 -1.390549 -3.717932 -0.694728 -0.238448 2.104477 1.214375 0.000000 0.000000 0.000000 0.000000 0.000000 0.000000 -0.000000 0.000000 0.000000 0.237167 -0.835596 0.011829 0.038762 -1.180464 0.618510 0.533944 0.566941 -0.875400 0.000000 0.000000 0.000000 0.000000 0.000000 0.000000 0.015538 0.014049 -0.655450 -0.000000 0.000000 0.000000 0.006256 -1.436343 0.003429 0.000000 0.000000 0.000000 -0.013590 1.253669 -0.420202 0.383694 -2.231998 -0.081895 -1.503754 3.203111 1.785674 0.000000 0.000000 0.000000
16.060237 67.836457 339.633292 -0.033948 -0.025922 0.681602 0.034254 0.025516 -0.681617 -0.000000 0.000000 0.000000 -0.000000 0.000000 0.000000 0.000000 0.000000 0.000000 -0.000000 0.000000 0.000000 -0.097149 -1.038545 -0.014208 -2.542192 -5.673966 -1.244314 -0.321101 3.748060 2.212880 0.000000 0.000000 0.000000 0.000000 0.000000 0.000000 0.087671 -0.803033 -0.161969 0.276420 -0.621932 0.203392 0.069411 -1.966149 1.049574 0.928647 1.010171 -1.526053 0.000000 0.000000 0.000000 0.000000 0.000000 0.000000 0.034254 0.025516 -0.681617 -0.000000 0.000000 0.000000 0.009352 -2.465557 0.009360 0.000000 0.000000 0.000000 -0.096277 2.202514 -0.276161 0.807987 -3.909936 -0.083226 -2.770909 5.713338 3.221003 0.000000 0.000000 0.000000
16.043328 67.848030 339.646004 -0.055717 -0.035086 0.700193 0.056142 0.034403 -0.700227 -0.000000 0.000000 0.000000 -0.000000 0.000000 0.000000 0.000000 0.000000 0.000000 -0.000000 0.000000 0.000000 -0.173062 -1.555334 -0.015354 -3.540129 -7.396659 -1.673218 -0.286282 4.889049 2.956067 0.000000 0.000000 0.000000 0.000000 0.000000 0.000000 0.187132 -1.036038 -0.197039 0.188823 -0.726258 0.291364 0.071139 -2.326595 1.278279 1.206537 1.293014 -1.925738 0.000000 0.000000 0.000000 0.000000 0.000000 0.000000 0.056142 0.034403 -0.700227 -0.000000 0.000000 0.000000 0.009051 -3.043845 0.017651 0.000000 0.000000 0.000000 -0.247134 2.819808 -0.194016 1.288829 -5.031390 -0.003199 -3.804463 7.615921 4.301671 0.000000 0.000000 0.000000
16.029018 67.858038 339.656952 -0.080683 -0.041715 0.711189 0.081195 0.040711 -0.711247 -0.000000 0.000000 0.000000 -0.000000 0.000000 0.000000 0.000000 0.000000 0.000000 -0.000000 0.000000 0.000000 -0.266922 -2.064821 -0.012684 -4.318663 -8.369894 -1.930689 -0.158026 5.513160 3.423585 0.000000 0.000000 0.000000 0.000000 0.000000 0.000000 0.324523 -1.158024 -0.201738 -0.052078 -0.686236 0.370459 0.027789 -2.225300 1.292655 1.384004 1.375210 -2.054055 0.000000 0.000000 0.000000 0.000000 0.000000 0.000000 0.081195 0.040711 -0.711247 -0.000000 0.000000 0.000000 0.005204 -3.146698 0.028124 0.000000 0.000000 0.000000 -0.463927 3.088300 -0.177518 1.835898 -5.592844 0.156631 -4.609475 8.975389 5.028493 0.000000 0.000000 0.000000
16.017307 67.866480 339.666136 -0.108846 -0.045808 0.714575 0.109409 0.044447 -0.714661 -0.000000 0.000000 0.000000 -0.000000 0.000000 0.000000 0.000000 0.000000 0.000000 -0.000000 0.000000 0.000000 -0.378155 -2.562787 -0.006372 -4.864818 -8.610606 -1.998707 0.048891 5.621842 3.608739 0.000000 0.000000 0.000000 0.000000 0.000000 0.000000 0.500600 -1.168909 -0.176244 -0.445958 -0.502759 0.440182 -0.071030 -1.615741 1.083594 1.471524 1.210552 -1.894971 0.000000 0.000000 0.000000 0.000000 0.000000 0.000000 0.109409 0.044447 -0.714661 -0.000000 0.000000 0.000000 -0.002237 -2.770468 0.040582 0.000000 0.000000 0.000000 -0.743307 3.000844 -0.229640 2.453000 -5.591467 0.391551 -5.192522 9.835321 5.403945 0.000000 0.000000 0.000000
16.021243 67.863895 339.671873 -0.122794 -0.042498 0.699776 0.123304 0.040995 -0.699866 -0.000000 0.000000 0.000000 -0.000000 0.000000 0.000000 0.000000 0.000000 0.000000 -0.000000 0.000000 0.000000 -0.555988 -3.236122 0.006826 -5.348465 -7.813100 -1.755870 0.524324 5.521126 3.412557 0.000000 0.000000 0.000000 0.000000 0.000000 0.000000 0.608711 -1.353211 -0.198369 -0.846747 -0.410452 0.646527 -0.116779 -0.430657 0.684179 1.912091 0.603277 -1.797672 0.000000 0.000000 0.000000 0.000000 0.000000 0.000000 0.123304 0.040995 -0.699866 -0.000000 0.000000 0.000000 -0.023686 -0.856498 0.064470 0.000000 0.000000 0.000000 -0.945519 3.193632 -0.196427 2.939510 -6.015745 0.545498 -5.007863 8.205570 4.437046 0.000000 0.000000 0.000000
16.022413 67.857126 339.683351 -0.154562 -0.046738 0.685198 0.155110 0.044887 -0.685322 -0.000000 0.000000 0.000000 -0.000000 0.000000 0.000000 0.000000 0.000000 0.000000 -0.000000 0.000000 0.000000 -0.735625 -3.779982 0.023937 -5.464616 -6.468627 -1.374679 1.002846 4.181148 2.949673 0.000000 0.000000 0.000000 0.000000 0.000000 0.000000 0.826674 -1.426367 -0.179007 -1.233822 0.086195 0.656566 -0.737244 1.037037 0.445832 2.359865 -0.907476 -1.384255 0.000000 0.000000 0.000000 0.000000 0.000000 0.000000 0.155110 0.044887 -0.685322 -0.000000 0.000000 0.000000 -0.060484 1.638888 0.113411 0.000000 0.000000 0.000000 -1.508132 3.175665 -0.244419 3.960994 -6.119784 0.880414 -5.135606 7.649199 3.787176 0.000000 0.000000 0.000000
